<?xml version="1.0" encoding="utf-8"?>
<!-- Generator: Adobe Illustrator 23.0.3, SVG Export Plug-In . SVG Version: 6.00 Build 0)  -->
<svg version="1.1" id="Layer_1" xmlns="http://www.w3.org/2000/svg" xmlns:xlink="http://www.w3.org/1999/xlink" x="0px" y="0px"
	 viewBox="0 0 41 14" style="enable-background:new 0 0 41 14;" xml:space="preserve">
<g>
	<path d="M11.3,0C8.8,0,7,1.2,5.6,4.4L3.7,8.5L2.1,4.8C2,4.7,1.8,4.6,1.7,4.6h-1c-0.2,0-0.3,0.1-0.3,0.2
		C0.3,4.9,0.3,5,0.4,5.1l2.9,6.2c0,0.1,0.2,0.2,0.4,0.2h0.1c0.2,0,0.3-0.1,0.4-0.2L7,5.1l0,0c1.2-2.6,2.5-3.4,4.2-3.4
		c2.3,0,4.2,1.9,4.2,4.2c0,2.3-1.9,4.2-4.2,4.2c-1.6,0-2.9-0.9-3.7-2.2c0,0-0.1-0.1-0.1,0S6.9,9.1,6.8,9.3c-0.1,0.2,0,0.3,0,0.3
		c1.1,1.3,2.7,2.1,4.5,2.1c3.2,0,5.8-2.6,5.8-5.8S14.5,0,11.3,0z"/>
	<g>
		<g>
			<path d="M25,8.5c0-0.1,0-0.3,0-0.5c0-0.2,0-0.4,0-0.5c0-0.9-0.3-1.7-0.8-2.2c-0.5-0.5-1.1-0.8-2-0.8
				c-0.9,0-1.6,0.3-2.1,1l-0.1,0.1V5c0-0.1,0-0.1-0.1-0.2c-0.1-0.1-0.1-0.1-0.2-0.1h-1.1c-0.1,0-0.1,0-0.2,0.1
				c-0.1,0-0.1,0.1-0.1,0.2v8.7c0,0.1,0,0.1,0.1,0.2c0.1,0,0.1,0.1,0.2,0.1h1.1c0.1,0,0.1,0,0.2-0.1c0,0,0.1-0.1,0.1-0.2v-3.1
				l0.1,0.1c0.5,0.6,1.1,0.9,2,0.9c0.9,0,1.5-0.3,2-0.8C24.7,10.2,25,9.5,25,8.5z M23.3,8.5c-0.1,1.2-0.6,1.8-1.6,1.8
				c-0.5,0-0.9-0.2-1.1-0.5c-0.3-0.3-0.4-0.7-0.4-1.2c0-0.1,0-0.3,0-0.5c0-0.2,0-0.4,0-0.5c0-0.5,0.2-0.9,0.4-1.2
				c0.3-0.3,0.6-0.5,1.2-0.5c1,0,1.5,0.6,1.6,1.8c0,0.1,0,0.2,0,0.4C23.3,8.2,23.3,8.4,23.3,8.5z"/>
			<path d="M32.7,8c0-1-0.3-1.9-0.8-2.5c-0.6-0.6-1.4-0.9-2.4-0.9c-1,0-1.8,0.3-2.4,0.9c-0.6,0.6-0.9,1.5-0.9,2.6l0,0.3
				c0,1,0.3,1.8,0.9,2.4c0.6,0.6,1.3,0.8,2.3,0.8c0.6,0,1.1-0.1,1.6-0.3c0.5-0.2,0.8-0.5,1.1-0.7c0.2-0.3,0.4-0.5,0.4-0.7
				c0-0.1,0-0.1-0.1-0.1c0,0-0.1-0.1-0.2-0.1h-1.2c-0.1,0-0.2,0-0.2,0c0,0-0.1,0.1-0.2,0.2c-0.3,0.4-0.8,0.6-1.3,0.6
				c-0.5,0-0.8-0.2-1.1-0.5C28.1,9.6,28,9.2,28,8.7V8.5h4.4c0.1,0,0.2,0,0.2-0.1c0.1-0.1,0.1-0.1,0.1-0.2V8z M31,7.5h-3V7.4
				c0-0.5,0.1-1,0.4-1.3c0.3-0.3,0.6-0.5,1.1-0.5c0.5,0,0.8,0.2,1.1,0.5C30.8,6.5,31,6.9,31,7.5L31,7.5z"/>
			<path d="M40.7,7.5c0-0.9-0.2-1.6-0.7-2.1c-0.5-0.5-1.1-0.8-1.9-0.8c-0.9,0-1.6,0.3-2.2,1l-0.1,0.1V5
				c0-0.1,0-0.1-0.1-0.2c0,0-0.1-0.1-0.2-0.1h-1.1c-0.1,0-0.1,0-0.2,0.1c-0.1,0-0.1,0.1-0.1,0.2v6.2c0,0.1,0,0.1,0.1,0.2h0
				c0.1,0.1,0.1,0.1,0.2,0.1h1.2c0.1,0,0.1,0,0.2-0.1c0-0.1,0.1-0.1,0.1-0.2V7.6c0-0.5,0.1-0.9,0.4-1.2C36.6,6,37,5.9,37.5,5.9
				c0.5,0,0.9,0.2,1.1,0.4C38.8,6.6,39,7,39,7.6v3.6c0,0.1,0,0.1,0.1,0.2c0.1,0.1,0.1,0.1,0.2,0.1h1.2c0.1,0,0.1,0,0.2-0.1
				c0-0.1,0.1-0.1,0.1-0.2V7.5z"/>
		</g>
	</g>
</g>
</svg>
