<?xml version="1.0" encoding="UTF-8"?>
<svg width="40px" height="28px" viewBox="0 0 40 28" version="1.1" xmlns="http://www.w3.org/2000/svg" xmlns:xlink="http://www.w3.org/1999/xlink">
    <!-- Generator: Sketch 57.1 (83088) - https://sketch.com -->
    <title>Fill 8</title>
    <desc>Created with Sketch.</desc>
    <g id="Page-1" stroke="none" stroke-width="1" fill="none" fill-rule="evenodd">
        <g id="global-home" transform="translate(-169.000000, -2503.000000)" fill="#1D116E">
            <path d="M204.74538,2507.77408 C202.19294,2505.21152 198.78228,2503.8 195.14106,2503.8 L195.13974,2503.8 C189.5128,2503.8 185.4219,2506.34166 182.49348,2512.63564 C181.28524,2515.2323 177.41434,2525.56988 177.41434,2525.56988 L173.2394,2514.55558 C173.08848,2514.1455 172.79676,2513.94068 172.366,2513.94068 L169.67958,2513.94068 C169.5071,2513.94068 169.35068,2514.01064 169.21076,2514.15122 C169.07018,2514.29158 169,2514.4579 169,2514.6526 C169,2514.78196 169.01056,2514.87898 169.03256,2514.94344 L175.01942,2529.6797 C175.12744,2529.93886 175.26736,2530.13818 175.4405,2530.2781 C175.61298,2530.41868 175.86092,2530.48864 176.18432,2530.48864 L178.64348,2530.48864 C179.18314,2530.48864 179.571,2530.21914 179.80926,2529.6797 L185.13436,2516.4654 L185.50044,2515.6811 C188.05684,2510.12104 190.85018,2507.85328 195.14106,2507.85328 C197.66292,2507.85328 200.04684,2508.85648 201.8537,2510.67786 C203.65462,2512.49396 204.36874,2514.87964 204.36874,2517.39622 C204.36874,2519.9227 203.65418,2522.30002 201.8537,2524.0906 C200.0552,2525.87898 197.6715,2526.86436 195.14106,2526.86436 L195.13974,2526.86436 C191.68948,2526.86436 188.50806,2524.9662 186.83606,2521.9104 C186.78194,2521.81162 186.66534,2521.71394 186.52542,2521.71394 C186.52212,2521.71394 186.51816,2521.71394 186.51486,2521.7146 C186.44138,2521.71702 186.3052,2521.7498 186.21676,2521.9412 C186.11908,2522.1535 185.03294,2524.91956 184.85386,2525.30236 C184.66378,2525.71068 184.73418,2526.02066 184.86288,2526.17488 C187.4239,2529.25752 191.85712,2530.91764 195.13974,2530.91764 L195.14106,2530.91764 C202.74316,2530.91764 208.699,2524.97874 208.69966,2517.39688 C208.69966,2513.7517 207.29584,2510.334 204.74538,2507.77408" id="Fill-8"></path>
        </g>
    </g>
</svg>