<?xml version="1.0" encoding="utf-8"?>
<!-- Generator: Adobe Illustrator 23.0.6, SVG Export Plug-In . SVG Version: 6.00 Build 0)  -->
<svg version="1.1" xmlns="http://www.w3.org/2000/svg" xmlns:xlink="http://www.w3.org/1999/xlink" x="0px" y="0px"
	 viewBox="0 0 165 29" style="enable-background:new 0 0 165 29;" xml:space="preserve" fill="#1D116E">
<circle cx="116.7" cy="15" r="2.5"/>
<path d="M85.7,12l-0.2,2.2h-2.2V22h-2.8v-7.8H79V12h1.5v-1.5c-0.1-0.8,0.1-1.6,0.5-2.3c0.5-0.8,1.4-1.2,2.3-1.1
	c0.9,0,1.8,0.1,2.7,0.3l-0.4,2.3c-0.4-0.1-0.8-0.2-1.2-0.2c-0.6,0-1.1,0.2-1.1,0.8V12H85.7z"/>
<path d="M20.23,12.05c0,0.17,0,0.25,0,0.42v0.08c0,4.62-3.7,8.32-8.32,8.32c-1.6,0-3.19-0.5-4.45-1.34
	c1.51,0.17,3.11-0.25,4.37-1.26c-1.26,0-2.35-0.84-2.77-2.1c0.42,0.08,0.92,0.08,1.34-0.08c-1.34-0.25-2.35-1.51-2.35-2.94l0,0
	c0.42,0.25,0.84,0.34,1.34,0.34c-1.26-0.92-1.68-2.6-0.92-3.95c1.51,1.85,3.7,2.94,6.05,3.11c-0.08-0.25-0.08-0.42-0.08-0.67l0,0
	c0-1.6,1.26-2.94,2.94-2.94c0.84,0,1.6,0.34,2.1,0.92c0.67-0.17,1.26-0.34,1.85-0.76c-0.25,0.67-0.67,1.26-1.26,1.68
	c0.59-0.08,1.18-0.25,1.68-0.5C21.24,11.13,20.73,11.63,20.23,12.05z"/>
<path d="M119.8,7h-6.6c-2.3,0-4.2,1.9-4.2,4.2v6.6c0,2.3,1.9,4.2,4.2,4.2h6.6c2.3,0,4.2-1.9,4.2-4.2v-6.6
	C124,8.9,122.1,7,119.8,7z M116.7,19c-2.2,0-4-1.8-4-4s1.8-4,4-4s4,1.8,4,4S118.9,19,116.7,19z M121,11c-0.6,0-1-0.4-1-1s0.4-1,1-1
	s1,0.4,1,1S121.6,11,121,11z"/>
<path d="M45,21h-3V11h3V21z M45,8.6c0,0.8-0.7,1.4-1.5,1.4l0,0h-0.1C42.6,10,42,9.3,42,8.5V8.4C42,7.6,42.7,7,43.5,7
	h0.1C44.4,7,45,7.7,45,8.5V8.6z M56,21h-3.3v-5.2c0-1.3-0.5-2.2-1.7-2.2c-0.8,0-1.4,0.5-1.7,1.2c-0.1,0.3-0.1,0.5-0.1,0.8V21H46
	c0,0,0-8.9,0-9.8h3.3v1.4c0.6-1,1.7-1.7,3-1.6c2.2,0,3.8,1.4,3.8,4.4V21H56z"/>
<path fill-rule="evenodd" clip-rule="evenodd" d="M155.98,7.66h-11.55c-2.27,0-4.1,1.8-4.1,4.02v5.65c0,2.22,1.84,4.02,4.1,4.02h11.55c2.27,0,4.1-1.8,4.1-4.02
	v-5.65C160.08,9.46,158.24,7.66,155.98,7.66z M153.87,14.79l-5.63,2.73c-0.15,0.07-0.32-0.04-0.32-0.21v-5.62
	c0-0.17,0.18-0.28,0.33-0.2l5.63,2.9C154.04,14.47,154.04,14.71,153.87,14.79z"/>
</svg>
