<?xml version="1.0" encoding="utf-8"?>
<!-- Generator: Adobe Illustrator 23.0.6, SVG Export Plug-In . SVG Version: 6.00 Build 0)  -->
<svg version="1.1" id="Layer_1" xmlns="http://www.w3.org/2000/svg" xmlns:xlink="http://www.w3.org/1999/xlink" x="0px" y="0px"
	 viewBox="0 0 165 29" style="enable-background:new 0 0 165 29;" xml:space="preserve">
<path fill="#4883f6" d="M150.2,1c-7.5,0-13.5,6-13.5,13.5s6,13.5,13.5,13.5s13.5-6,13.5-13.5S157.7,1,150.2,1z M146,21V9l12,6L146,21z"
	/>
<path fill="#4883f6" d="M82.5,1C75,1,69,7,69,14.5S75,28,82.5,28S96,22,96,14.5S90,1,82.5,1z M85.7,12l-0.2,2.2h-2.2V22h-2.8v-7.8H79
	V12h1.5v-1.5c-0.1-0.8,0.1-1.6,0.5-2.3c0.5-0.8,1.4-1.2,2.3-1.1c0.9,0,1.8,0.1,2.7,0.3l-0.4,2.3c-0.4-0.1-0.8-0.2-1.2-0.2
	c-0.6,0-1.1,0.2-1.1,0.8V12H85.7z"/>
<path fill="#4883f6" d="M14.5,1C7,1,1,7,1,14.5S7,28,14.5,28S28,22,28,14.5S22,1,14.5,1z M21.3,11.5c0,0.2,0,0.3,0,0.5c0,0,0,0.1,0,0.1
	c0,5.5-4.4,9.9-9.9,9.9c-1.9,0-3.8-0.6-5.3-1.6c1.8,0.2,3.7-0.3,5.2-1.5c-1.5,0-2.8-1-3.3-2.5c0.5,0.1,1.1,0.1,1.6-0.1
	c-1.6-0.3-2.8-1.8-2.8-3.5c0,0,0,0,0,0c0.5,0.3,1,0.4,1.6,0.4c-1.5-1.1-2-3.1-1.1-4.7c1.8,2.2,4.4,3.5,7.2,3.7
	c-0.1-0.3-0.1-0.5-0.1-0.8c0,0,0,0,0,0c0-1.9,1.5-3.5,3.5-3.5c1,0,1.9,0.4,2.5,1.1c0.8-0.2,1.5-0.4,2.2-0.9c-0.3,0.8-0.8,1.5-1.5,2
	c0.7-0.1,1.4-0.3,2-0.6C22.5,10.4,21.9,11,21.3,11.5z"/>
<path fill="#4883f6" d="M116.5,1C109,1,103,7,103,14.5S109,28,116.5,28S130,22,130,14.5S124,1,116.5,1z M124,17.8
	c0,2.3-1.9,4.2-4.2,4.2h-6.6c-2.3,0-4.2-1.9-4.2-4.2v-6.6c0-2.3,1.9-4.2,4.2-4.2h6.6c2.3,0,4.2,1.9,4.2,4.2V17.8z"/>
<path id="Fill_4" fill="#4883f6" d="M122,10c0,0.6-0.4,1-1,1s-1-0.4-1-1c0-0.6,0.4-1,1-1S122,9.4,122,10"/>
<path id="Fill_6" fill="#4883f6" d="M116.7,19c-2.2,0-4-1.8-4-4s1.8-4,4-4s4,1.8,4,4S118.9,19,116.7,19z M116.7,12.5
	c-1.4,0-2.5,1.1-2.5,2.5s1.1,2.5,2.5,2.5s2.5-1.1,2.5-2.5C119.2,13.6,118.1,12.5,116.7,12.5z"/>
<path fill="#4883f6" d="M48.5,1C41,1,35,7,35,14.5S41,28,48.5,28S62,22,62,14.5S56,1,48.5,1z M45,21h-3V11h3V21z M45,8.6
	c0,0.8-0.7,1.4-1.5,1.4h0c0,0-0.1,0-0.1,0C42.6,10,42,9.3,42,8.5c0,0,0-0.1,0-0.1C42,7.6,42.7,7,43.5,7c0,0,0.1,0,0.1,0
	C44.4,7,45,7.7,45,8.5C45,8.5,45,8.6,45,8.6z M56,21h-3.3v-5.2c0-1.3-0.5-2.2-1.7-2.2c-0.8,0-1.4,0.5-1.7,1.2
	c-0.1,0.3-0.1,0.5-0.1,0.8V21H46c0,0,0-8.9,0-9.8h3.3v1.4c0.6-1,1.7-1.7,3-1.6c2.2,0,3.8,1.4,3.8,4.4V21z"/>
</svg>
