<?xml version="1.0" encoding="utf-8"?>
<!-- Generator: Adobe Illustrator 23.0.6, SVG Export Plug-In . SVG Version: 6.00 Build 0)  -->
<svg version="1.1" id="Layer_1" xmlns="http://www.w3.org/2000/svg" xmlns:xlink="http://www.w3.org/1999/xlink" x="0px" y="0px"
	 viewBox="0 0 350 120" style="enable-background:new 0 0 350 120;" xml:space="preserve">
<g>
	<path d="M157.8,117.9c-0.5-0.5-0.8-1.2-0.8-2V40.6c0-0.8,0.3-1.5,0.8-2c0.5-0.5,1.2-0.7,1.9-0.7h9.1c0.8,0,1.5,0.3,2,0.8
		s0.8,1.2,0.8,1.9v4.5c4-5.6,10-8.4,18.1-8.4c7.7,0,13.5,2.4,17.6,7.2c4.1,4.8,6.3,11.3,6.6,19.4c0.1,0.9,0.1,2.3,0.1,4.1
		c0,1.8,0,3.2-0.1,4.1c-0.2,8-2.4,14.4-6.5,19.3c-4.1,4.9-10,7.3-17.7,7.3c-7.6,0-13.4-2.7-17.4-8.1v25.8c0,0.8-0.2,1.5-0.7,2
		c-0.5,0.5-1.2,0.7-2,0.7h-9.9C159,118.6,158.3,118.3,157.8,117.9z M198.4,70.9c0.1-0.8,0.1-1.9,0.1-3.4c0-1.5,0-2.7-0.1-3.4
		c-0.5-10-4.8-15-13-15c-4.3,0-7.5,1.4-9.7,4.2c-2.1,2.8-3.3,6.2-3.4,10.2c-0.1,0.9-0.1,2.4-0.1,4.3c0,2,0,3.5,0.1,4.4
		c0.2,3.8,1.3,7,3.5,9.7c2.2,2.7,5.4,4,9.5,4C193.5,85.9,197.9,80.9,198.4,70.9z"/>
	<path d="M230.9,90.9c-5-4.8-7.6-11.7-7.9-20.7l-0.1-2.8c0-9.5,2.5-16.9,7.4-22.4c5-5.5,11.8-8.2,20.6-8.2c9,0,16,2.7,20.9,8.2
		c4.9,5.5,7.3,12.7,7.3,21.8v2.4c0,0.8-0.3,1.4-0.8,1.9c-0.5,0.5-1.2,0.8-2,0.8h-37.7v0.9c0.2,4.2,1.3,7.7,3.5,10.5
		c2.2,2.8,5.1,4.1,8.9,4.1c4.3,0,7.8-1.7,10.6-5.2c0.7-0.8,1.2-1.3,1.6-1.5c0.4-0.2,1-0.3,1.9-0.3h10c0.7,0,1.3,0.2,1.8,0.6
		c0.5,0.4,0.7,0.9,0.7,1.6c0,1.8-1.1,4-3.2,6.4c-2.2,2.5-5.2,4.6-9.3,6.4c-4,1.8-8.7,2.7-14,2.7C242.6,98.1,235.9,95.7,230.9,90.9z
		 M263.5,62.2V62c0-4.5-1.1-8-3.4-10.7c-2.2-2.7-5.3-4-9.2-4s-6.9,1.3-9.1,4c-2.2,2.7-3.3,6.3-3.3,10.7v0.2H263.5z"/>
	<path d="M290.7,96.2c-0.5-0.5-0.8-1.2-0.8-1.9V40.6c0-0.8,0.3-1.5,0.8-2c0.5-0.5,1.2-0.7,1.9-0.7h9.4c0.8,0,1.5,0.2,2,0.7
		c0.5,0.5,0.7,1.2,0.7,2v4.7c4.6-5.7,10.9-8.5,19-8.5c7,0,12.5,2.3,16.6,6.8c4.1,4.5,6.1,10.8,6.1,18.8v31.9c0,0.8-0.2,1.4-0.7,1.9
		c-0.5,0.5-1.2,0.8-2,0.8h-10.2c-0.8,0-1.4-0.3-1.9-0.8c-0.5-0.5-0.8-1.2-0.8-1.9V63c0-4.4-1.1-7.8-3.2-10.3
		c-2.2-2.5-5.2-3.7-9.3-3.7c-3.9,0-7,1.3-9.3,3.8c-2.4,2.5-3.5,5.9-3.5,10.2v31.3c0,0.8-0.2,1.4-0.7,1.9c-0.5,0.5-1.2,0.8-2,0.8
		h-10.1C291.9,97,291.2,96.7,290.7,96.2z"/>
	<path d="M131.9,15.7c-9.1-9.2-21.4-14.2-34.4-14.2c0,0,0,0,0,0c-20.2,0-34.8,9.1-45.3,31.7C47.9,42.4,34,79.4,34,79.4L18.7,40
		c-0.5-1.5-1.6-2.2-3.1-2.2H5.9c-0.6,0-1.2,0.3-1.7,0.8c-0.5,0.5-0.8,1.1-0.8,1.8c0,0.5,0,0.8,0.1,1l21.8,52.8
		c0.4,0.9,0.9,1.6,1.5,2.1c0.6,0.5,1.5,0.8,2.7,0.8h8.8c1.9,0,3.3-1,4.2-2.9l19.1-47.3L63,44c9.2-19.9,19.2-28,34.5-28
		c9,0,17.6,3.6,24.1,10.1c6.5,6.5,9,15.1,9,24.1c0,9.1-2.6,17.6-9,24c-6.4,6.4-15,9.9-24.1,9.9c0,0,0,0,0,0
		c-12.4,0-23.8-6.8-29.8-17.7c-0.2-0.4-0.6-0.7-1.1-0.7c0,0,0,0,0,0c-0.3,0-0.8,0.1-1.1,0.8c-0.3,0.8-4.7,10.3-5.4,11.7
		c-0.7,1.5-0.4,2.6,0,3.1c9.2,11,22.8,17.4,37.3,17.4c0,0,0,0,0,0c27.2,0,48.6-21.3,48.6-48.4C146.1,37.1,141.1,24.8,131.9,15.7z"/>
</g>
</svg>
